<?xml version="1.0" standalone="no"?>
<!DOCTYPE svg PUBLIC "-//W3C//DTD SVG 20010904//EN"
 "http://www.w3.org/TR/2001/REC-SVG-20010904/DTD/svg10.dtd">
<svg version="1.0" xmlns="http://www.w3.org/2000/svg"
 width="300.000000pt" height="92.000000pt" viewBox="0 0 300.000000 92.000000"
 preserveAspectRatio="xMidYMid meet">
<metadata>
Created by potrace 1.10, written by Peter Selinger 2001-2011
</metadata>
<g transform="translate(0.000000,92.000000) scale(0.100000,-0.100000)"
fill="#FFFF00" stroke="none">
<path d="M365 736 c-26 -9 -35 -15 -25 -19 24 -9 161 -29 166 -24 2 2 -29 10
-71 16 -41 7 -75 15 -75 18 0 3 15 2 34 -1 19 -4 54 -3 78 1 42 7 42 7 13 14
-45 10 -76 9 -120 -5z"/>
<path d="M495 719 c-22 -6 -16 -7 25 -4 36 3 46 2 30 -4 -22 -6 -19 -8 25 -15
55 -9 76 -21 69 -40 -4 -10 -14 -10 -54 0 -27 7 -71 15 -97 18 -26 3 -8 -3 41
-14 49 -11 92 -23 95 -26 3 -3 6 -16 6 -29 1 -18 -3 -21 -15 -14 -22 13 -410
97 -415 90 -2 -3 89 -26 202 -51 l205 -45 40 -48 c22 -26 44 -45 49 -41 5 3 6
-2 2 -12 -5 -13 -15 -7 -52 34 l-46 50 -195 46 c-207 49 -230 52 -230 35 0 -6
6 -9 13 -6 7 3 102 -17 211 -43 l198 -48 47 -46 c26 -26 51 -43 56 -39 4 5 5
2 0 -6 -6 -10 -4 -12 5 -6 9 5 11 4 6 -4 -4 -6 -2 -20 5 -29 7 -9 -14 8 -47
39 -32 31 -77 63 -99 72 -68 26 -355 98 -377 95 -36 -5 -32 -24 4 -20 40 4
245 -49 348 -90 57 -23 88 -44 130 -86 50 -52 42 -50 -20 4 -30 26 -209 96
-340 134 -92 26 -160 30 -160 8 0 -6 14 -8 34 -4 62 12 417 -118 494 -181 50
-41 50 -58 0 -20 -18 14 -98 51 -178 82 -233 91 -274 104 -319 98 -52 -7 -54
-20 -3 -15 68 7 573 -200 548 -225 -3 -3 -17 2 -30 11 -14 9 -124 54 -244 100
-206 80 -322 112 -322 89 0 -6 20 -13 45 -16 44 -6 434 -151 508 -188 30 -16
40 -17 51 -7 12 11 12 16 -1 31 -12 12 -13 17 -3 17 8 0 9 4 3 13 -5 6 -8 23
-7 37 1 14 -1 29 -4 34 -5 8 -12 62 -14 106 -1 8 -9 27 -19 42 -11 14 -19 32
-19 40 0 7 -11 29 -23 48 -17 27 -28 34 -47 33 -21 -2 -22 -2 -5 6 16 6 12 9
-20 14 -46 8 -49 8 -90 -4z m169 -93 c-3 -8 -1 -17 5 -20 6 -4 8 -13 5 -21 -4
-8 -11 -12 -18 -8 -6 4 -4 -2 4 -13 8 -10 16 -21 18 -24 2 -3 2 3 0 12 -1 9 2
16 7 15 6 -1 9 -6 7 -11 -1 -4 2 -13 7 -20 5 -6 7 -17 3 -23 -5 -8 -16 -2 -33
20 -19 24 -25 42 -23 72 3 49 2 47 14 40 5 -3 7 -12 4 -19z"/>
<path d="M260 700 c-14 -4 -22 -8 -18 -9 18 -2 355 -73 373 -78 13 -3 17 -2
10 4 -5 6 -82 25 -170 42 -210 42 -220 48 -50 26 25 -3 17 1 -20 10 -67 16
-88 17 -125 5z"/>
<path d="M555 680 c86 -21 90 -22 80 -12 -5 6 -35 13 -65 16 -50 5 -52 4 -15
-4z"/>
<path d="M890 413 l0 -183 135 0 135 0 0 35 0 35 -95 0 -95 0 0 45 0 45 88 0
87 0 0 30 0 30 -87 0 -88 0 0 40 0 40 95 0 95 0 0 33 0 32 -135 0 -135 0 0
-182z"/>
<path d="M1392 529 c2 -38 2 -69 1 -69 -2 0 -12 9 -23 20 -39 39 -126 17 -155
-40 -23 -44 -19 -121 8 -161 38 -57 127 -69 163 -22 13 17 13 17 14 -4 0 -19
6 -23 33 -23 l32 0 -2 181 -2 182 -37 2 -36 2 4 -68z m-22 -97 c28 -23 31
-103 4 -133 -41 -45 -104 -10 -104 59 0 77 50 115 100 74z"/>
<path d="M1520 563 c0 -31 2 -33 35 -33 33 0 35 2 35 33 0 30 -2 32 -35 33
-33 0 -35 -1 -35 -33z"/>
<path d="M2310 596 c0 -3 27 -44 60 -90 l60 -84 -66 -96 -65 -96 45 0 c45 0
46 1 87 65 l41 66 37 -63 c36 -62 37 -63 84 -66 26 -2 47 -1 47 2 0 3 -28 46
-62 96 l-62 90 58 85 c32 47 57 87 55 89 -2 1 -23 1 -46 -2 -40 -4 -45 -8 -74
-58 -17 -30 -32 -54 -34 -54 -2 0 -19 25 -37 55 -26 43 -38 55 -58 55 -14 0
-35 3 -47 6 -13 4 -23 4 -23 0z m174 -168 c9 -37 7 -44 -15 -45 -15 -1 -19 2
-15 13 3 9 6 24 6 35 0 26 16 24 24 -3z"/>
<path d="M1670 530 c0 -36 -2 -40 -25 -40 -18 0 -25 -5 -25 -20 0 -15 7 -20
25 -20 25 0 25 0 25 -93 0 -110 10 -127 78 -127 40 0 42 1 42 30 0 19 -5 30
-12 29 -36 -4 -38 1 -38 82 l0 81 25 -4 c22 -5 25 -2 25 22 0 24 -3 27 -25 22
-23 -4 -25 -2 -25 37 0 40 -1 41 -35 41 -34 0 -35 -1 -35 -40z"/>
<path d="M1520 363 l0 -133 35 0 35 0 0 133 0 132 -35 0 -35 0 0 -132z"/>
<path d="M1890 487 c-65 -33 -91 -138 -50 -204 22 -37 43 -50 85 -54 65 -5 87
1 120 34 88 88 31 237 -89 237 -23 0 -52 -6 -66 -13z m97 -52 c27 -19 38 -71
23 -110 -13 -35 -26 -45 -62 -45 -49 0 -76 77 -47 133 22 40 50 47 86 22z"/>
<path d="M2139 495 c0 0 -1 -60 -2 -133 l-2 -132 38 0 37 0 0 84 c0 95 11 116
61 116 27 0 29 3 29 35 0 29 -4 35 -21 35 -11 0 -34 -13 -50 -29 l-29 -29 0
26 c0 23 -4 27 -30 27 -16 0 -30 0 -31 0z"/>
<path d="M133 484 c4 -4 136 -56 294 -116 251 -95 313 -115 291 -92 -4 3 -123
50 -265 104 -241 91 -338 123 -320 104z"/>
<path d="M130 457 c0 -23 538 -235 561 -221 6 4 -49 29 -122 56 -106 38 -394
150 -431 166 -5 2 -8 1 -8 -1z"/>
<path d="M130 423 c1 -22 103 -72 273 -134 105 -39 199 -75 210 -80 10 -6 26
-8 35 -4 18 7 23 5 -263 110 -88 32 -179 71 -202 87 -43 29 -53 33 -53 21z"/>
<path d="M133 376 c0 -13 15 -40 36 -63 32 -34 57 -46 215 -102 126 -44 182
-59 189 -52 8 8 7 11 -4 11 -16 0 -338 113 -368 130 -11 5 -30 25 -42 42 -24
35 -19 33 36 -13 11 -9 94 -42 185 -74 91 -32 177 -64 191 -71 14 -7 31 -9 38
-5 7 5 -68 37 -191 81 -143 52 -215 84 -244 107 -41 33 -41 33 -41 9z"/>
<path d="M132 301 c-1 -36 56 -92 121 -120 74 -32 238 -83 244 -77 9 9 9 9
-145 61 -138 47 -192 74 -192 97 0 7 10 2 23 -9 12 -11 74 -37 137 -58 63 -21
135 -47 159 -57 26 -11 48 -15 53 -10 5 5 -62 33 -159 66 -151 52 -172 62
-204 98 l-36 40 -1 -31z"/>
<path d="M370 118 c15 -16 90 -47 95 -38 3 5 -9 13 -27 18 -18 6 -42 13 -53
18 -11 4 -18 5 -15 2z"/>
</g>
</svg>